<?xml version="1.0" standalone="no"?>
<!DOCTYPE svg PUBLIC "-//W3C//DTD SVG 20010904//EN"
 "http://www.w3.org/TR/2001/REC-SVG-20010904/DTD/svg10.dtd">
<svg version="1.0" xmlns="http://www.w3.org/2000/svg"
 width="612.000000pt" height="451.000000pt" viewBox="0 0 612.000000 451.000000"
 preserveAspectRatio="xMidYMid meet">

<g transform="translate(0.000000,451.000000) scale(0.100000,-0.100000)"
fill="#000000" stroke="none">
<path d="M2175 4015 c-236 -29 -448 -76 -646 -144 -157 -53 -200 -71 -338
-141 -416 -208 -720 -493 -892 -834 -104 -204 -150 -393 -151 -616 0 -213 43
-401 139 -598 453 -933 1889 -1406 3131 -1032 310 93 585 227 809 396 l72 54
78 -26 c94 -32 170 -29 300 9 l82 24 27 -38 c65 -95 210 -207 329 -254 60 -24
91 -29 215 -36 149 -8 197 -17 263 -51 43 -21 73 -17 82 13 9 29 -18 55 -82
79 -84 31 -130 39 -265 44 -95 4 -138 10 -179 26 -83 33 -181 103 -254 183
-62 66 -125 168 -125 200 0 23 -73 129 -139 201 -88 98 -230 228 -451 415
-308 260 -341 289 -419 365 -115 112 -139 180 -82 237 25 25 37 29 85 29 46 0
69 -7 140 -45 107 -56 400 -232 759 -454 299 -185 332 -198 332 -136 0 28 -15
39 -285 206 -235 145 -285 180 -288 200 -1 13 4 60 10 104 l13 80 75 3 c98 4
356 -15 442 -33 142 -30 175 -57 357 -287 132 -167 266 -354 437 -610 64 -98
126 -180 136 -184 24 -7 48 12 48 39 0 18 -162 267 -327 502 -136 194 -295
396 -378 481 -100 102 -136 121 -275 144 l-75 13 -18 71 c-181 720 -1000 1296
-1995 1401 -169 18 -545 18 -697 0z m725 -150 c412 -52 786 -180 1099 -377
247 -156 465 -373 591 -588 45 -77 103 -209 120 -271 6 -22 14 -47 17 -55 5
-12 -14 -14 -128 -12 l-134 3 3 71 c3 56 -1 81 -18 122 -24 56 -83 116 -134
137 -48 20 -694 118 -744 112 -94 -10 -189 -89 -211 -175 -25 -97 -82 -507
-75 -546 13 -79 68 -153 141 -190 17 -9 107 -28 200 -42 92 -15 169 -28 171
-29 2 -2 -4 -27 -12 -56 -36 -121 -13 -183 119 -314 l90 -90 -17 -50 c-9 -27
-17 -63 -18 -78 0 -58 52 -126 175 -230 17 -14 28 -28 25 -30 -24 -24 -248
-164 -326 -204 -380 -194 -767 -288 -1234 -300 -349 -8 -635 29 -940 123 -728
225 -1225 688 -1346 1254 -23 106 -25 333 -5 435 148 747 953 1311 1991 1395
142 12 447 4 600 -15z m1022 -985 c177 -28 337 -55 355 -61 42 -14 99 -78 107
-122 5 -27 -38 -363 -48 -374 -1 -1 -35 19 -76 43 -288 175 -430 244 -497 244
-126 0 -222 -112 -192 -222 18 -69 37 -98 122 -185 51 -53 74 -83 64 -83 -31
0 -264 39 -288 49 -31 11 -79 59 -90 89 -15 40 -10 109 25 334 35 216 46 257
84 291 18 16 83 45 104 47 3 0 152 -23 330 -50z m165 -1021 c237 -201 434
-380 473 -429 28 -35 30 -41 14 -47 -28 -10 -169 13 -216 36 -107 51 -353 242
-439 339 -59 68 -72 96 -64 144 9 51 32 108 45 108 5 0 89 -68 187 -151z m65
-410 c46 -33 121 -79 167 -102 l84 -42 131 -2 131 -2 23 -57 c13 -31 20 -60
15 -64 -15 -15 -148 -42 -208 -43 -52 -1 -72 4 -147 41 -98 48 -232 144 -272
196 -16 22 -26 47 -26 70 0 33 8 66 16 66 2 0 41 -27 86 -61z"/>
<path d="M2769 3291 c-18 -19 -29 -40 -29 -58 0 -16 24 -85 54 -153 64 -148
118 -317 147 -455 30 -145 37 -440 15 -595 -29 -200 -108 -456 -190 -618 -14
-28 -26 -63 -26 -77 0 -85 91 -133 155 -83 51 40 160 300 215 514 83 322 85
686 5 1004 -54 210 -167 495 -212 530 -39 31 -98 27 -134 -9z"/>
<path d="M2385 3119 c-60 -34 -69 -91 -30 -170 218 -430 225 -886 19 -1303
-53 -107 -56 -145 -15 -187 23 -23 38 -29 71 -29 51 0 76 23 120 111 180 356
224 751 126 1130 -44 167 -139 392 -184 432 -25 23 -81 31 -107 16z"/>
<path d="M1960 2907 c-28 -14 -50 -51 -50 -85 0 -12 17 -57 39 -100 152 -303
157 -571 15 -856 -30 -60 -54 -121 -54 -137 0 -17 11 -41 28 -60 23 -26 36
-32 71 -32 54 0 79 23 129 122 147 287 170 570 72 863 -38 112 -113 262 -142
282 -27 19 -74 20 -108 3z"/>
<path d="M1558 2714 c-60 -32 -64 -95 -12 -172 74 -111 102 -220 84 -324 -13
-71 -47 -152 -85 -202 -36 -47 -45 -86 -30 -123 17 -40 51 -63 95 -63 44 1 57
11 108 83 99 142 140 316 109 473 -31 163 -144 345 -213 344 -16 -1 -41 -7
-56 -16z"/>
</g>
</svg>
